<svg width="24" height="24" viewBox="0 0 24 24" fill="none" xmlns="http://www.w3.org/2000/svg">
<path fill-rule="evenodd" clip-rule="evenodd" d="M0.75 12.0002C0.75 17.5627 4.8125 22.1877 10.125 23.1252L10.1879 23.0749C10.167 23.0709 10.1461 23.0668 10.1253 23.0626V15.1251H7.31278V12.0001H10.1253V9.50012C10.1253 6.68762 11.9378 5.12512 14.5003 5.12512C15.3128 5.12512 16.1878 5.25012 17.0003 5.37512V8.25012H15.5628C14.1878 8.25012 13.8753 8.93762 13.8753 9.81262V12.0001H16.8753L16.3753 15.1251H13.8753V23.0626C13.8543 23.0668 13.8332 23.071 13.8122 23.075L13.875 23.1252C19.1875 22.1877 23.25 17.5627 23.25 12.0002C23.25 5.81274 18.1875 0.750244 12 0.750244C5.8125 0.750244 0.75 5.81274 0.75 12.0002Z" fill="#D1D1D1"/>
</svg>
