<svg width="122" height="36" viewBox="0 0 122 36" fill="none" xmlns="http://www.w3.org/2000/svg">
<path fill-rule="evenodd" clip-rule="evenodd" d="M117.48 0.720449C119.569 0.720449 121.28 2.41945 121.28 4.5V31.5C121.28 33.5805 119.581 35.2796 117.48 35.2796H4.52018C2.43066 35.2796 0.720446 33.5805 0.720446 31.5V4.5C0.720446 2.41945 2.41944 0.720449 4.52018 0.720449H117.48ZM117.48 0H4.52018C2.02892 0 0 2.02893 0 4.5V31.5C0 33.98 2.02892 36 4.52018 36H117.48C119.969 36 122 33.98 122 31.5V4.5C122 2.02893 119.969 0 117.48 0Z" fill="#D1D1D1"/>
<path d="M64.2702 11.9086C63.4555 11.9086 62.7687 11.6235 62.2255 11.0624C61.6869 10.517 61.3861 9.76518 61.3996 8.9976C61.3996 8.17839 61.6779 7.48488 62.2255 6.935C62.7664 6.3739 63.4532 6.08887 64.2679 6.08887C65.0737 6.08887 65.7604 6.3739 66.3125 6.935C66.8602 7.50283 67.1385 8.19635 67.1385 8.9976C67.1295 9.81904 66.8512 10.5126 66.3125 11.0602C65.7717 11.6258 65.0849 11.9086 64.2702 11.9086ZM40.0286 11.9086C39.2319 11.9086 38.5406 11.628 37.975 11.0737C37.4139 10.5215 37.1289 9.82353 37.1289 8.99984C37.1289 8.17615 37.4139 7.47814 37.975 6.92602C38.5294 6.37166 39.2207 6.09111 40.0286 6.09111C40.4237 6.09111 40.8074 6.16967 41.1755 6.32902C41.5369 6.48388 41.8309 6.69485 42.0486 6.95296L42.1024 7.01804L41.4942 7.61505L41.4314 7.54099C41.088 7.13251 40.6279 6.93276 40.0197 6.93276C39.4765 6.93276 39.003 7.12578 38.6124 7.50732C38.2197 7.89111 38.0199 8.39386 38.0199 9.00208C38.0199 9.61031 38.2197 10.1131 38.6124 10.4968C39.003 10.8784 39.4765 11.0714 40.0197 11.0714C40.5987 11.0714 41.0857 10.8784 41.465 10.4968C41.6895 10.2724 41.8286 9.95819 41.878 9.56094H39.9276V8.72154H42.7152L42.7264 8.79785C42.7466 8.93924 42.7668 9.08513 42.7668 9.21979C42.7668 9.9941 42.5334 10.6203 42.071 11.0826C41.5458 11.6303 40.8591 11.9086 40.0286 11.9086ZM72.2602 11.7896H71.4006L68.7679 7.5769L68.7903 8.3355V11.7874H67.9307V6.21006H68.9115L68.9385 6.25271L71.414 10.2208L71.3916 9.46443V6.21006H72.2602V11.7896ZM57.8108 11.7896H56.94V7.04947H55.4296V6.21006H59.3191V7.04947H57.8086V11.7896H57.8108ZM54.7203 11.7896H53.8518V6.21006H54.7203V11.7896ZM49.8388 11.7896H48.9702V7.04947H47.4598V6.21006H51.3493V7.04947H49.8388V11.7896ZM46.9099 11.7806H43.5792V6.21006H46.9099V7.04947H44.4501V8.58014H46.6698V9.41056H44.4501V10.9412H46.9099V11.7806ZM62.8629 10.4856C63.2512 10.8739 63.7225 11.0692 64.2702 11.0692C64.8335 11.0692 65.2936 10.8784 65.6774 10.4856C66.0589 10.1041 66.2519 9.60358 66.2519 8.99984C66.2519 8.3961 66.0589 7.89336 65.6796 7.51405C65.2914 7.12577 64.8178 6.93051 64.2724 6.93051C63.7091 6.93051 63.249 7.12129 62.8674 7.51405C62.4859 7.8956 62.2929 8.3961 62.2929 8.99984C62.2929 9.60358 62.4836 10.1063 62.8629 10.4856Z" fill="#D1D1D1"/>
<path fill-rule="evenodd" clip-rule="evenodd" d="M61.3175 19.58C59.1966 19.58 57.4774 21.1892 57.4774 23.4089C57.4774 25.6084 59.2078 27.2378 61.3175 27.2378C63.4385 27.2378 65.1577 25.6174 65.1577 23.4089C65.1577 21.1892 63.4385 19.58 61.3175 19.58ZM61.3175 25.7206C60.1572 25.7206 59.1584 24.76 59.1584 23.3999C59.1584 22.0196 60.1594 21.0792 61.3175 21.0792C62.4779 21.0792 63.4766 22.0196 63.4766 23.3999C63.4789 24.769 62.4779 25.7206 61.3175 25.7206ZM52.9393 19.58C50.8183 19.58 49.0991 21.1892 49.0991 23.4089C49.0991 25.6084 50.8295 27.2378 52.9393 27.2378C55.0602 27.2378 56.7794 25.6174 56.7794 23.4089C56.7794 21.1892 55.058 19.58 52.9393 19.58ZM52.9393 25.7206C51.7789 25.7206 50.7802 24.76 50.7802 23.3999C50.7802 22.0196 51.7812 21.0792 52.9393 21.0792C54.0996 21.0792 55.0984 22.0196 55.0984 23.3999C55.0984 24.769 54.0996 25.7206 52.9393 25.7206ZM42.9697 20.7493V22.3698H46.8592C46.7403 23.2787 46.4395 23.9498 45.9794 24.4099C45.4094 24.98 44.5296 25.5994 42.9787 25.5994C40.5884 25.5994 38.7189 23.6693 38.7189 21.279C38.7189 18.8887 40.5884 16.9585 42.9787 16.9585C44.2692 16.9585 45.2096 17.468 45.9076 18.1189L47.0567 16.9697C46.0872 16.0406 44.7967 15.3291 42.9877 15.3291C39.7086 15.3291 36.957 17.9999 36.957 21.27C36.957 24.5491 39.7064 27.2109 42.9877 27.2109C44.7585 27.2109 46.0872 26.6318 47.1375 25.5411C48.2081 24.4705 48.547 22.96 48.547 21.7413C48.547 21.362 48.5178 21.0209 48.4572 20.7313H42.9675C42.9697 20.7291 42.9697 20.7493 42.9697 20.7493ZM83.7479 22.0106C83.4269 21.151 82.4574 19.571 80.4688 19.571C78.4983 19.571 76.8599 21.1219 76.8599 23.3999C76.8599 25.55 78.4803 27.2289 80.6596 27.2289C82.4102 27.2289 83.4292 26.1583 83.8489 25.5299L82.5494 24.659C82.1185 25.2987 81.5192 25.7184 80.6686 25.7184C79.809 25.7184 79.2075 25.3279 78.808 24.558L83.9274 22.4371C83.9274 22.4393 83.7479 22.0106 83.7479 22.0106ZM78.5274 23.2899C78.487 21.8109 79.6766 21.059 80.5272 21.059C81.1983 21.059 81.7571 21.389 81.9479 21.8693L78.5274 23.2899ZM74.3686 26.9999H76.0497V15.751H74.3686V26.9999ZM71.608 20.4306H71.5474C71.1681 19.9795 70.4477 19.571 69.5275 19.571C67.6175 19.571 65.8579 21.252 65.8579 23.4111C65.8579 25.5613 67.6085 27.2221 69.5275 27.2221C70.4365 27.2221 71.1681 26.8114 71.5474 26.3513H71.608V26.9012C71.608 28.3623 70.827 29.1501 69.5679 29.1501C68.5377 29.1501 67.8981 28.4094 67.6377 27.7899L66.1766 28.4004C66.5963 29.4104 67.7163 30.6605 69.5656 30.6605C71.5362 30.6605 73.206 29.5002 73.206 26.67V19.7999H71.617V20.4306C71.6192 20.4306 71.608 20.4306 71.608 20.4306ZM69.6779 25.7206C68.5175 25.7206 67.5479 24.751 67.5479 23.4111C67.5479 22.06 68.5175 21.0815 69.6779 21.0815C70.827 21.0815 71.718 22.0712 71.718 23.4111C71.7292 24.751 70.8292 25.7206 69.6779 25.7206ZM91.6189 15.751H87.5992V26.9999H89.2803V22.7401H91.6212C93.4818 22.7401 95.3109 21.3912 95.3109 19.25C95.3109 17.1089 93.4885 15.751 91.6189 15.751ZM91.6683 21.169H89.278V17.3087H91.6683C92.9274 17.3087 93.6389 18.3478 93.6389 19.2388C93.6389 20.1209 92.9184 21.169 91.6683 21.169ZM102.049 19.5598C100.828 19.5598 99.5685 20.1007 99.0478 21.279L100.538 21.8984C100.859 21.279 101.447 21.068 102.069 21.068C102.94 21.068 103.819 21.5887 103.84 22.5179V22.6368C103.539 22.4663 102.879 22.2059 102.089 22.2059C100.48 22.2059 98.8481 23.0857 98.8481 24.7353C98.8481 26.2458 100.168 27.2154 101.638 27.2154C102.767 27.2154 103.388 26.7059 103.777 26.1156H103.837V26.9865H105.458V22.6772C105.458 20.6707 103.967 19.5598 102.049 19.5598ZM101.838 25.7206C101.288 25.7206 100.518 25.4513 100.518 24.76C100.518 23.8892 101.478 23.5593 102.298 23.5593C103.038 23.5593 103.388 23.7186 103.828 23.9386C103.707 24.9486 102.854 25.7116 101.838 25.7206ZM111.369 19.7999L109.439 24.6792H109.379L107.379 19.7999H105.57L108.571 26.6206L106.861 30.4114H108.611L113.228 19.7999H111.369ZM96.2379 26.9999H97.9189V15.751H96.2379V26.9999Z" fill="#D1D1D1"/>
<path d="M9.19977 8.05016C9.19977 7.60033 9.30312 7.26505 9.46624 7.03475L20.4005 17.9625V18.0299L9.4716 28.9589C9.30488 28.7383 9.19977 28.4051 9.19977 27.9512V8.05016Z" fill="#D1D1D1" stroke="#071949" stroke-width="0.438596"/>
<path d="M28.7017 16.8902L28.7024 16.8906C29.2917 17.2225 29.5351 17.6317 29.5351 17.9957C29.5351 18.36 29.2912 18.7716 28.7014 19.108L24.365 21.5727L20.8306 18.0384V17.9597L24.365 14.4253L28.7017 16.8902Z" fill="#D1D1D1" stroke="#071949" stroke-width="0.438596"/>
<path d="M9.71561 29.2073L20.6122 18.3106L24.0535 21.7519L11.1555 29.0892C11.1552 29.0893 11.1549 29.0895 11.1546 29.0896C10.5448 29.429 10.0458 29.4222 9.71561 29.2073Z" fill="#D1D1D1" stroke="#071949" stroke-width="0.438596"/>
<path d="M24.0533 14.2487L20.6122 17.6899L9.71502 6.80361C10.0451 6.58606 10.5458 6.57409 11.1533 6.92128L11.1538 6.92156L24.0533 14.2487Z" fill="#D1D1D1" stroke="#071949" stroke-width="0.438596"/>
</svg>
