<svg width="31" height="30" viewBox="0 0 31 30" fill="none" xmlns="http://www.w3.org/2000/svg">
<path d="M15.1577 4.09106C12.1951 4.09106 11.8233 4.10402 10.6597 4.15697C9.49834 4.21016 8.70564 4.39402 8.01202 4.66379C7.29455 4.94243 6.68593 5.31516 6.07958 5.92175C5.47278 6.52811 5.10007 7.13675 4.82053 7.85402C4.55008 8.54788 4.366 9.34084 4.31373 10.5017C4.26168 11.6654 4.24805 12.0374 4.24805 15.0002C4.24805 17.9629 4.26123 18.3336 4.31395 19.4972C4.36736 20.6586 4.55122 21.4513 4.82076 22.1449C5.09961 22.8624 5.47233 23.4711 6.0789 24.0774C6.68502 24.6842 7.29364 25.0579 8.01066 25.3365C8.70473 25.6063 9.49766 25.7902 10.6588 25.8433C11.8224 25.8963 12.1939 25.9092 15.1564 25.9092C18.1192 25.9092 18.4899 25.8963 19.6535 25.8433C20.8148 25.7902 21.6084 25.6063 22.3025 25.3365C23.0198 25.0579 23.6275 24.6842 24.2336 24.0774C24.8404 23.4711 25.2131 22.8624 25.4926 22.1452C25.7608 21.4513 25.9449 20.6583 25.9994 19.4974C26.0517 18.3338 26.0653 17.9629 26.0653 15.0002C26.0653 12.0374 26.0517 11.6656 25.9994 10.502C25.9449 9.34061 25.7608 8.54788 25.4926 7.85425C25.2131 7.13675 24.8404 6.52811 24.2336 5.92175C23.6268 5.31493 23.02 4.9422 22.3018 4.66379C21.6064 4.39402 20.8132 4.21016 19.6519 4.15697C18.4883 4.10402 18.1179 4.09106 15.1543 4.09106H15.1577ZM14.1791 6.05697C14.4696 6.05652 14.7936 6.05697 15.1577 6.05697C18.0704 6.05697 18.4156 6.06743 19.5658 6.1197C20.6294 6.16834 21.2066 6.34606 21.5912 6.49538C22.1002 6.69311 22.4632 6.92947 22.8448 7.31129C23.2266 7.69311 23.4629 8.05675 23.6611 8.56584C23.8104 8.94993 23.9884 9.5272 24.0368 10.5908C24.089 11.7408 24.1004 12.0863 24.1004 14.9977C24.1004 17.909 24.089 18.2545 24.0368 19.4045C23.9881 20.4681 23.8104 21.0454 23.6611 21.4295C23.4634 21.9386 23.2266 22.3011 22.8448 22.6827C22.4629 23.0645 22.1005 23.3008 21.5912 23.4986C21.2071 23.6486 20.6294 23.8258 19.5658 23.8745C18.4158 23.9267 18.0704 23.9381 15.1577 23.9381C12.2448 23.9381 11.8996 23.9267 10.7497 23.8745C9.68606 23.8254 9.10881 23.6477 8.72405 23.4983C8.21497 23.3006 7.85135 23.0642 7.46954 22.6824C7.08773 22.3006 6.85138 21.9379 6.6532 21.4286C6.50389 21.0445 6.32594 20.4672 6.27753 19.4036C6.22526 18.2536 6.21481 17.9081 6.21481 14.9949C6.21481 12.0817 6.22526 11.7381 6.27753 10.5881C6.32617 9.52447 6.50389 8.9472 6.6532 8.56265C6.85092 8.05356 7.08773 7.68993 7.46954 7.30811C7.85135 6.92629 8.21497 6.68993 8.72405 6.49175C9.10858 6.34175 9.68606 6.16447 10.7497 6.11561C11.756 6.07016 12.146 6.05652 14.1791 6.05425V6.05697ZM20.9807 7.86834C20.258 7.86834 19.6717 8.45402 19.6717 9.17697C19.6717 9.8997 20.258 10.4861 20.9807 10.4861C21.7034 10.4861 22.2898 9.8997 22.2898 9.17697C22.2898 8.45425 21.7034 7.86788 20.9807 7.86788V7.86834ZM15.1577 9.39788C12.0639 9.39788 9.55561 11.9063 9.55561 15.0002C9.55561 18.094 12.0639 20.6013 15.1577 20.6013C18.2515 20.6013 20.7589 18.094 20.7589 15.0002C20.7589 11.9063 18.2513 9.39788 15.1575 9.39788H15.1577ZM15.1577 11.3638C17.1658 11.3638 18.794 12.9917 18.794 15.0002C18.794 17.0083 17.1658 18.6365 15.1577 18.6365C13.1494 18.6365 11.5215 17.0083 11.5215 15.0002C11.5215 12.9917 13.1494 11.3638 15.1577 11.3638Z" fill="#D1D1D1"/>
</svg>
