<svg width="45" height="45" viewBox="0 0 45 45" fill="none" xmlns="http://www.w3.org/2000/svg">
<rect width="45" height="45" rx="22.5" fill="#F3F3F3"/>
<path d="M28.8 29.7C28.8 28.5835 28.8 28.0253 28.6643 27.5711C28.3589 26.5483 27.5711 25.748 26.5644 25.4378C26.1172 25.3 25.5677 25.3 24.4687 25.3H20.5312C19.4322 25.3 18.8827 25.3 18.4356 25.4378C17.4288 25.748 16.641 26.5483 16.3356 27.5711C16.2 28.0253 16.2 28.5835 16.2 29.7M26.0437 18.9C26.0437 20.8882 24.4571 22.5 22.5 22.5C20.5428 22.5 18.9562 20.8882 18.9562 18.9C18.9562 16.9118 20.5428 15.3 22.5 15.3C24.4571 15.3 26.0437 16.9118 26.0437 18.9Z" stroke="#757575" stroke-width="2" stroke-linecap="round" stroke-linejoin="round"/>
</svg>
