<svg width="31" height="30" viewBox="0 0 31 30" fill="none" xmlns="http://www.w3.org/2000/svg">
<path d="M16.8513 3.855C14.1599 3.48477 11.4255 4.10083 9.15286 5.58942C6.88025 7.07802 5.22299 9.33861 4.48708 11.9538C3.75117 14.5689 3.98632 17.3621 5.1491 19.8174C6.31189 22.2727 8.32379 24.2244 10.8133 25.3121C10.746 24.448 10.8078 23.5787 10.9966 22.7328C11.2047 21.7891 12.4544 16.588 12.4544 16.588C12.2056 16.0302 12.0812 15.4248 12.09 14.8141C12.09 13.1438 13.0539 11.8975 14.253 11.8975C14.4684 11.8943 14.682 11.9376 14.8791 12.0244C15.0763 12.1111 15.2525 12.2393 15.3957 12.4003C15.539 12.5612 15.6459 12.7511 15.7091 12.957C15.7724 13.163 15.7906 13.3801 15.7625 13.5937C15.7625 14.606 15.1124 16.138 14.7727 17.5756C14.7055 17.8392 14.7013 18.1149 14.7602 18.3805C14.8192 18.6461 14.9397 18.8941 15.1121 19.1046C15.2845 19.315 15.5039 19.4821 15.7526 19.5922C16.0014 19.7023 16.2726 19.7525 16.5442 19.7386C18.6792 19.7386 20.1099 17.0041 20.1099 13.7759C20.1099 11.3013 18.4711 9.4476 15.4498 9.4476C14.727 9.41951 14.006 9.53862 13.3306 9.79771C12.6552 10.0568 12.0395 10.4504 11.5209 10.9547C11.0022 11.459 10.5915 12.0635 10.3137 12.7314C10.0358 13.3993 9.89657 14.1166 9.90444 14.84C9.87223 15.6423 10.1311 16.4293 10.6333 17.0559C10.7272 17.1259 10.7957 17.2246 10.8286 17.337C10.8614 17.4494 10.8569 17.5695 10.8155 17.679C10.7638 17.886 10.6333 18.3798 10.5816 18.5609C10.5708 18.6223 10.5458 18.6803 10.5085 18.7303C10.4712 18.7803 10.4227 18.8208 10.3669 18.8486C10.3111 18.8764 10.2495 18.8907 10.1872 18.8903C10.1248 18.89 10.0634 18.875 10.0079 18.8466C8.45117 18.2234 7.71778 16.5103 7.71778 14.5543C7.71778 11.3519 10.3994 7.51853 15.7647 7.51853C20.0346 7.51853 22.8736 10.6422 22.8736 13.9829C22.8736 18.3798 20.4249 21.6856 16.8063 21.6856C16.2655 21.7029 15.7291 21.5836 15.2466 21.3386C14.7641 21.0936 14.3512 20.731 14.046 20.2841C14.046 20.2841 13.3959 22.8892 13.2676 23.3819C13.0059 24.233 12.6196 25.0408 12.1215 25.7789C13.1597 26.0938 14.2384 26.2513 15.3227 26.2468C16.8002 26.248 18.2635 25.9577 19.6287 25.3926C20.9939 24.8274 22.2342 23.9986 23.2786 22.9534C24.323 21.9083 25.151 20.6674 25.7152 19.3018C26.2794 17.9362 26.5686 16.4728 26.5664 14.9952C26.565 12.2788 25.5808 9.65456 23.7955 7.60715C22.0103 5.55973 19.5445 4.22738 16.8536 3.85612L16.8513 3.855Z" fill="#D1D1D1"/>
</svg>
