<svg width="31" height="30" viewBox="0 0 31 30" fill="none" xmlns="http://www.w3.org/2000/svg">
<path fill-rule="evenodd" clip-rule="evenodd" d="M25.1871 10.111C25.1955 10.3296 25.1984 10.5482 25.1984 10.7668C25.1984 17.3945 20.5361 25.0459 12.0103 25.0459C9.39138 25.0459 6.95613 24.2112 4.9043 22.7902C5.26699 22.83 5.63535 22.8598 6.00935 22.8598C8.18082 22.8598 10.1808 22.0548 11.7673 20.7034C9.739 20.6736 8.02633 19.2129 7.43565 17.2256C7.71921 17.2852 8.01123 17.3151 8.30987 17.3151C8.73098 17.3151 9.13983 17.2556 9.53173 17.1363C7.40925 16.6792 5.81057 14.6522 5.81057 12.2177C5.81057 12.1879 5.81057 12.1779 5.81057 12.158C6.43611 12.5257 7.15207 12.7541 7.91232 12.7839C6.6669 11.8797 5.84824 10.3396 5.84824 8.60064C5.84824 7.68647 6.07622 6.82194 6.47754 6.07669C8.763 9.11731 12.1799 11.1146 16.032 11.3233C15.9529 10.9556 15.9124 10.5682 15.9124 10.1807C15.9124 7.40833 17.9878 5.1626 20.5483 5.1626C21.8813 5.1626 23.0853 5.76882 23.9303 6.74261C24.9883 6.52401 25.9793 6.1067 26.8762 5.53037C26.5286 6.7029 25.7947 7.68642 24.8357 8.30249C25.774 8.18325 26.6689 7.91517 27.4989 7.5177C26.8762 8.5213 26.0924 9.40553 25.1871 10.111Z" fill="#D1D1D1"/>
</svg>
