<svg width="31" height="30" viewBox="0 0 31 30" fill="none" xmlns="http://www.w3.org/2000/svg">
<path fill-rule="evenodd" clip-rule="evenodd" d="M25.5347 6.40149C26.619 6.69339 27.4738 7.54826 27.7657 8.63248C28.3079 10.6133 28.287 14.7416 28.287 14.7416C28.287 14.7416 28.287 18.8492 27.7657 20.83C27.4738 21.9142 26.619 22.7691 25.5347 23.061C23.554 23.5822 15.6308 23.5822 15.6308 23.5822C15.6308 23.5822 7.7285 23.5822 5.72686 23.0401C4.64264 22.7482 3.78778 21.8933 3.49587 20.8091C2.97461 18.8492 2.97461 14.7208 2.97461 14.7208C2.97461 14.7208 2.97461 10.6133 3.49587 8.63248C3.78778 7.54826 4.66349 6.67254 5.72686 6.38064C7.70765 5.85938 15.6308 5.85938 15.6308 5.85938C15.6308 5.85938 23.554 5.85938 25.5347 6.40149ZM19.6963 14.5761L13.1076 18.3708V10.7813L19.6963 14.5761Z" fill="#D1D1D1"/>
</svg>
