<svg width="196" height="45" viewBox="0 0 196 45" fill="none" xmlns="http://www.w3.org/2000/svg">
<path d="M38.7988 35.3772V9.88113H48.9717C50.7848 9.88113 52.2512 10.245 53.3688 10.9708C54.4864 11.6966 55.3063 12.6084 55.8243 13.7063C56.3424 14.8041 56.6014 15.9143 56.6014 17.0346C56.6014 18.4637 56.2812 19.6494 55.6387 20.594C54.9963 21.5385 54.1173 22.1702 52.9976 22.4891V21.6039C54.5864 21.9351 55.7795 22.6731 56.5749 23.818C57.3703 24.9629 57.768 26.2427 57.768 27.6595C57.768 29.1826 57.4885 30.5217 56.9297 31.6789C56.3709 32.836 55.5184 33.7417 54.3784 34.3959C53.2362 35.0501 51.8005 35.3793 50.0689 35.3793H38.8009L38.7988 35.3772ZM43.6732 19.8314H48.9024C49.4428 19.8314 49.9262 19.7373 50.3504 19.5472C50.7746 19.3591 51.1091 19.0668 51.3579 18.6701C51.6047 18.2756 51.7291 17.7645 51.7291 17.1389C51.7291 16.3599 51.4884 15.7037 51.0051 15.1742C50.5217 14.6426 49.8222 14.3768 48.9024 14.3768H43.6732V19.8293V19.8314ZM43.6732 30.8447H49.5734C50.2199 30.8447 50.797 30.7057 51.3049 30.4277C51.8107 30.1496 52.2084 29.7612 52.498 29.2583C52.7855 28.7574 52.9303 28.1645 52.9303 27.4796C52.9303 26.8785 52.8059 26.3409 52.5591 25.8686C52.3124 25.3963 51.9371 25.0222 51.4374 24.7442C50.9378 24.4661 50.3157 24.3271 49.5734 24.3271H43.6732V30.8427V30.8447Z" fill="#FF4D00"/>
<path d="M60.418 35.3772V16.2536H64.658V20.9271L64.1992 20.3261C64.4459 19.6657 64.7763 19.0626 65.1883 18.5208C65.6003 17.977 66.1061 17.5293 66.7077 17.1756C67.1666 16.8914 67.6683 16.6706 68.2088 16.5112C68.7492 16.3517 69.3101 16.2515 69.8872 16.2106C70.4644 16.1697 71.0416 16.1841 71.6187 16.2556V20.7534C71.0885 20.5878 70.4726 20.5326 69.773 20.5857C69.0714 20.6389 68.4392 20.8004 67.8743 21.0723C67.3093 21.3319 66.8321 21.6774 66.4426 22.1088C66.053 22.5402 65.7593 23.0472 65.5595 23.6319C65.3596 24.2166 65.2597 24.8749 65.2597 25.6068V35.3813H60.42L60.418 35.3772Z" fill="#FF4D00"/>
<path d="M79.0349 35.9088C77.6684 35.9088 76.512 35.645 75.5637 35.1217C74.6153 34.5962 73.8974 33.895 73.408 33.0139C72.9185 32.1347 72.6758 31.1636 72.6758 30.1005C72.6758 29.2153 72.8104 28.4078 73.0816 27.6758C73.3529 26.9439 73.7914 26.2979 74.3971 25.7377C75.0028 25.1775 75.8186 24.7073 76.8424 24.3291C77.5481 24.0695 78.3904 23.8384 79.3673 23.6381C80.3442 23.4377 81.4516 23.2456 82.6876 23.0636C83.9235 22.8816 85.2838 22.6772 86.7685 22.4523L85.037 23.4091C85.037 22.2765 84.7658 21.4444 84.2253 20.9129C83.6828 20.3813 82.7773 20.1155 81.5047 20.1155C80.799 20.1155 80.0628 20.2873 79.2959 20.6287C78.5311 20.9721 77.9947 21.5793 77.6888 22.4523L73.3427 21.0703C73.826 19.4879 74.7316 18.2019 76.0633 17.2104C77.3931 16.2188 79.2082 15.7241 81.5026 15.7241C83.1872 15.7241 84.6822 15.9837 85.9895 16.503C87.2968 17.0223 88.2859 17.9198 88.9569 19.1935C89.3342 19.9009 89.5565 20.6103 89.6279 21.3177C89.6993 22.025 89.7339 22.8162 89.7339 23.6892V35.3752H85.5306V31.4437L86.1302 32.2574C85.2002 33.5434 84.1968 34.4736 83.1179 35.046C82.041 35.6185 80.6766 35.9047 79.0287 35.9047L79.0349 35.9088ZM80.0587 32.1204C80.9418 32.1204 81.6862 31.9651 82.2939 31.6523C82.8997 31.3395 83.383 30.9817 83.742 30.581C84.1009 30.1803 84.3456 29.8429 84.4741 29.571C84.7209 29.0517 84.8657 28.4466 84.9065 27.7556C84.9473 27.0646 84.9677 26.4901 84.9677 26.0301L86.381 26.3838C84.9554 26.6209 83.8031 26.8172 82.92 26.9766C82.037 27.1361 81.3252 27.2813 80.7827 27.4101C80.2402 27.5409 79.765 27.682 79.351 27.8353C78.8799 28.0234 78.5005 28.2278 78.2109 28.4466C77.9213 28.6653 77.7112 28.9045 77.5746 29.1642C77.44 29.4238 77.3706 29.7121 77.3706 30.031C77.3706 30.4685 77.4787 30.8427 77.697 31.1555C77.9152 31.4683 78.2231 31.7075 78.6249 31.8731C79.0247 32.0387 79.5019 32.1204 80.0566 32.1204H80.0587Z" fill="#FF4D00"/>
<path d="M93.4121 35.3772V16.2536H97.6868V22.5913H98.2885V35.3751H93.4142L93.4121 35.3772ZM106.448 35.3772V26.3469C106.448 25.9094 106.424 25.3533 106.377 24.6746C106.33 23.9958 106.183 23.315 105.937 22.6301C105.69 21.9453 105.286 21.3728 104.727 20.9128C104.168 20.4528 103.377 20.2218 102.351 20.2218C101.939 20.2218 101.497 20.2872 101.027 20.416C100.556 20.5469 100.116 20.7963 99.7018 21.1684C99.2899 21.5405 98.9513 22.0863 98.6862 22.806C98.4211 23.5256 98.2885 24.4824 98.2885 25.6743L95.5332 24.3638C95.5332 22.853 95.8391 21.4362 96.4509 20.1135C97.0628 18.7907 97.9846 17.7235 99.2144 16.9078C100.444 16.0941 101.996 15.6852 103.868 15.6852C105.363 15.6852 106.583 15.9387 107.525 16.4457C108.467 16.9528 109.2 17.5968 109.724 18.3757C110.248 19.1546 110.621 19.9663 110.846 20.8106C111.07 21.655 111.204 22.4257 111.251 23.1208C111.298 23.818 111.323 24.325 111.323 24.6439V35.3731H106.448V35.3772Z" fill="#FF4D00"/>
<path d="M122.415 35.9088C120.661 35.9088 119.124 35.4652 117.806 34.5799C116.487 33.6947 115.461 32.4905 114.724 30.9674C113.988 29.4443 113.621 27.727 113.621 25.8154C113.621 23.9039 113.994 22.1355 114.743 20.6185C115.491 19.1015 116.542 17.9076 117.896 17.0326C119.25 16.1596 120.839 15.7221 122.664 15.7221C124.489 15.7221 126.003 16.1657 127.239 17.051C128.475 17.9362 129.411 19.1404 130.047 20.6635C130.683 22.1866 131.001 23.9039 131.001 25.8154C131.001 27.727 130.681 29.4443 130.039 30.9674C129.396 32.4905 128.44 33.6947 127.169 34.5799C125.897 35.4652 124.314 35.9088 122.417 35.9088H122.415ZM123.192 31.6237C124.263 31.6237 125.12 31.3824 125.762 30.8979C126.405 30.4134 126.865 29.7346 127.149 28.8616C127.432 27.9887 127.573 26.9726 127.573 25.8154C127.573 24.6583 127.432 23.6443 127.149 22.7692C126.865 21.8963 126.417 21.2175 125.797 20.733C125.179 20.2485 124.369 20.0072 123.368 20.0072C122.297 20.0072 121.416 20.2709 120.727 20.7943C120.037 21.3197 119.527 22.023 119.199 22.9021C118.869 23.7812 118.705 24.7523 118.705 25.8154C118.705 26.8785 118.865 27.866 119.183 28.7451C119.501 29.6242 119.988 30.3234 120.649 30.8427C121.308 31.362 122.156 31.6216 123.192 31.6216V31.6237ZM127.573 35.3772V22.2745H126.974V9.88113H131.813V35.3772H127.573Z" fill="#FF4D00"/>
<path d="M135.873 35.3772V9.88113H146.046C147.859 9.88113 149.325 10.245 150.443 10.9708C151.561 11.6966 152.381 12.6084 152.899 13.7063C153.417 14.8041 153.676 15.9143 153.676 17.0346C153.676 18.4637 153.355 19.6494 152.713 20.594C152.071 21.5385 151.192 22.1702 150.072 22.4891V21.6039C151.661 21.9351 152.854 22.6731 153.649 23.818C154.444 24.9629 154.842 26.2427 154.842 27.6595C154.842 29.1826 154.563 30.5217 154.004 31.6789C153.445 32.836 152.593 33.7417 151.453 34.3959C150.31 35.0501 148.875 35.3793 147.143 35.3793H135.875L135.873 35.3772ZM140.747 19.8314H145.975C146.517 19.8314 146.998 19.7373 147.423 19.5472C147.847 19.3591 148.181 19.0668 148.43 18.6701C148.677 18.2756 148.801 17.7645 148.801 17.1389C148.801 16.3599 148.561 15.7037 148.077 15.1742C147.594 14.6426 146.894 14.3768 145.975 14.3768H140.747V19.8293V19.8314ZM140.747 30.8447H146.648C147.294 30.8447 147.871 30.7057 148.379 30.4277C148.885 30.1496 149.283 29.7612 149.572 29.2583C149.86 28.7574 150.005 28.1645 150.005 27.4796C150.005 26.8785 149.88 26.3409 149.633 25.8686C149.387 25.3963 149.011 25.0222 148.512 24.7442C148.01 24.4661 147.39 24.3271 146.648 24.3271H140.747V30.8427V30.8447Z" fill="#071949"/>
<path d="M166.078 35.9088C164.159 35.9088 162.474 35.4774 161.026 34.6167C159.578 33.756 158.451 32.5661 157.645 31.0492C156.837 29.5322 156.436 27.7883 156.436 25.8175C156.436 23.8466 156.848 22.0659 157.671 20.549C158.495 19.032 159.631 17.8483 161.079 16.9998C162.527 16.1493 164.194 15.7241 166.078 15.7241C167.963 15.7241 169.684 16.1555 171.138 17.0162C172.592 17.8769 173.726 19.0667 174.538 20.5837C175.35 22.1007 175.757 23.8446 175.757 25.8154C175.757 27.7862 175.348 29.5485 174.53 31.0655C173.712 32.5825 172.576 33.7683 171.122 34.6249C169.668 35.4815 167.987 35.9088 166.078 35.9088ZM166.078 31.411C167.62 31.411 168.772 30.8876 169.531 29.845C170.29 28.8003 170.671 27.4571 170.671 25.8175C170.671 24.1778 170.286 22.761 169.515 21.7449C168.744 20.7309 167.598 20.2218 166.08 20.2218C165.032 20.2218 164.173 20.459 163.502 20.9292C162.831 21.4015 162.334 22.0557 162.009 22.8939C161.685 23.7321 161.524 24.7053 161.524 25.8154C161.524 27.5266 161.909 28.8882 162.68 29.8961C163.451 30.906 164.585 31.409 166.08 31.409L166.078 31.411Z" fill="#071949"/>
<path d="M180.492 43.8759L184.165 33.7478L184.236 36.7225L175.936 16.2536H180.916L186.498 30.7364H185.368L190.913 16.2536H195.718L184.944 43.8739H180.494L180.492 43.8759Z" fill="#071949"/>
<path d="M13.4728 1.49039C13.7848 2.98896 13.1628 4.19926 12.1451 5.27872C13.0322 5.3973 14.6006 4.98637 15.5959 4.11953C16.5687 3.27314 17.1051 2.15279 17.5374 0.897506C18.033 1.67643 18.3859 2.44923 18.4797 3.31607C18.5735 4.17677 18.3186 4.99864 18.0759 5.88388C19.1955 5.28281 20.0745 4.52842 20.5926 3.4142C21.1228 2.27136 20.9862 1.14488 20.4804 0C20.9087 0.327109 21.3472 0.641952 21.7632 0.981328C22.6851 1.73368 23.507 2.57803 24.0597 3.65136C24.5124 4.53046 24.749 5.46477 24.7511 6.45632C24.7511 6.55445 24.7511 6.65463 24.7551 6.75276C24.7551 6.77116 24.7735 6.78956 24.7816 6.80796C25.2242 6.45427 25.6076 4.93935 25.6505 4.20744C25.7055 3.25678 25.5995 2.33065 25.1712 1.42292C25.5791 1.69892 25.9951 1.9647 26.3949 2.25501C27.5207 3.07687 28.5037 4.03775 29.1828 5.27055C30.3045 7.3068 30.1801 9.33897 29.0829 11.3405C28.4323 12.5262 27.5655 13.5321 26.5335 14.403C26.4703 14.4562 26.4357 14.6156 26.4683 14.6933C26.97 15.9077 27.3738 17.1528 27.59 18.449C27.7266 19.2667 27.7776 20.0988 27.8837 20.9207C27.902 21.0638 27.9632 21.258 28.0693 21.3214C29.1502 21.9838 29.7416 22.9569 29.9395 24.1897C30.2311 26.0031 29.7335 27.5733 28.4323 28.8612C27.8368 29.45 27.1066 29.8099 26.2562 29.8998C26.1379 29.9121 25.989 30.0409 25.9278 30.1554C25.1467 31.6171 24.1718 32.9317 22.9441 34.0459C21.4349 35.4157 19.7054 36.3602 17.7128 36.8284C16.3566 37.1473 14.9901 37.2496 13.6155 37.0594C11.5414 36.7712 9.63857 36.0188 7.91521 34.8228C6.38357 33.7618 5.12726 32.437 4.12791 30.8628C4.06877 30.7708 3.96068 30.6624 3.86482 30.6522C2.15982 30.4457 1.10542 29.403 0.469102 27.9106C-0.246752 26.2362 -0.175371 24.5761 0.905549 23.053C1.15233 22.7055 1.54186 22.4622 1.85186 22.1555C1.95996 22.0492 2.08436 21.9122 2.10884 21.7732C2.22305 21.1169 2.30871 20.4566 2.3964 19.7983C2.40864 19.7001 2.3964 19.5775 2.3495 19.4937C1.53779 18.0871 0.999365 16.5763 0.760747 14.9755C0.418116 12.6898 0.615944 10.4818 1.87838 8.45986C2.58607 7.3252 3.61397 6.56058 4.72956 5.8941C6.28975 4.95979 7.97232 4.28104 9.64468 3.5798C10.2382 3.33038 10.8337 3.08505 11.419 2.81927C11.7963 2.64754 12.1736 2.46763 12.5224 2.24479C12.8609 2.02603 13.1607 1.74595 13.4789 1.49244L13.4728 1.49039ZM4.18298 25.8253C4.20745 25.907 4.24009 25.9868 4.25844 26.0686C4.70508 28.1845 5.65956 30.0388 7.15041 31.6028C9.24291 33.8006 11.7719 35.0804 14.8392 35.1847C16.5238 35.2419 18.1105 34.8637 19.5932 34.0643C21.9876 32.7743 23.5682 30.7564 24.6634 28.3113C24.7572 28.1007 24.8408 27.8881 24.9224 27.6734C24.9999 27.4731 25.0672 27.2686 25.1691 26.9783C23.9332 27.9862 22.6484 28.4483 21.1412 28.252C19.271 28.0087 17.6047 26.6001 17.103 24.7765C17.0255 24.4964 16.9827 24.1795 16.8216 23.9526C15.9813 22.775 14.2396 22.6809 13.1261 23.6173C13.0506 23.6807 13.018 23.7972 12.9772 23.8953C12.7406 24.4453 12.5469 25.0157 12.2674 25.5411C11.7555 26.502 11.8759 27.7205 12.6223 28.4953C13.483 29.3887 14.4844 29.5502 15.6142 29.08C15.9936 28.9226 16.3668 29.0575 16.5014 29.3744C16.6462 29.7179 16.5075 30.0552 16.1404 30.2494C14.7169 31.0018 12.6937 30.5888 11.6495 29.3662C11.0927 28.7141 10.7807 27.9678 10.6603 27.1296C8.17423 28.2806 6.03278 27.8472 4.18502 25.8253H4.18298ZM7.03824 18.0482C9.71607 17.4554 12.5183 19.1359 13.0465 22.1146C14.3865 21.5095 15.7019 21.5565 16.9868 22.3252C17.6027 20.3073 18.8345 18.9744 20.9168 18.5921C22.9849 18.2138 24.6062 19.0153 25.8972 20.6324C25.7891 18.8885 25.422 17.2346 24.7409 15.6297C24.5961 15.7033 24.49 15.7585 24.386 15.8116C22.0508 17.0301 19.5565 17.6067 16.9358 17.67C15.7753 17.6987 14.6271 17.5903 13.4871 17.3531C12.0084 17.0444 10.6196 16.5292 9.37344 15.6624C9.03896 15.4293 8.72284 15.1676 8.35574 14.8876C8.22929 16.1019 8.11304 17.2816 7.0362 18.0482H7.03824ZM21.7653 27.007C23.7619 27.0192 25.3853 25.4389 25.3935 23.4231C25.4037 21.3684 23.7741 19.7799 21.7795 19.7921C19.787 19.8024 18.1982 21.3357 18.186 23.376C18.1717 25.4389 19.787 26.9906 21.7653 27.007ZM11.7719 22.8404C11.8086 20.8655 10.1036 19.1625 8.04166 19.2402C6.21021 19.3097 4.5093 20.89 4.58883 23.0244C4.65818 24.8746 6.28771 26.4836 8.19462 26.459C10.2178 26.4345 11.78 24.8521 11.7719 22.8404ZM26.9843 27.931C28.4568 27.101 28.8463 24.5046 27.9367 23.4251C27.6206 24.9155 27.3004 26.4366 26.9843 27.931ZM2.04153 24.2735C1.11358 25.7987 1.99871 28.1293 2.96746 28.5219C2.44331 27.1725 2.16798 25.7803 2.04153 24.2735Z" fill="#071949"/>
<path d="M6.32227 35.937C6.70365 36.121 7.01569 36.26 7.31549 36.4215C9.2122 37.4519 11.1109 38.4782 12.9954 39.5291C13.285 39.6906 13.5094 39.6967 13.7786 39.5373C14.3782 39.1815 14.9921 39.2367 15.5713 39.5638C15.8874 39.7417 16.1362 39.6947 16.4197 39.5352C17.4068 38.9791 18.3939 38.421 19.3912 37.8833C20.5272 37.272 21.6754 36.6812 22.8195 36.0842C22.8767 36.0535 22.9399 36.0351 23.0276 36.0024V45C22.8094 44.9059 22.6095 44.8364 22.4259 44.7362C20.8637 43.8735 19.3096 43.0005 17.7453 42.1439C17.211 41.8516 16.6624 41.5837 16.1036 41.3404C15.973 41.2832 15.7467 41.3241 15.6182 41.4038C15.0818 41.7452 14.3007 41.7657 13.7786 41.3997C13.5787 41.2587 13.3829 41.2239 13.1728 41.3384C12.3673 41.7739 11.5657 42.2175 10.7602 42.653C9.47733 43.3481 8.1945 44.0411 6.90963 44.7301C6.73832 44.8221 6.5568 44.8916 6.32227 44.9979V35.9391V35.937Z" fill="#FF4D00"/>
<path d="M14.5961 33.6718C12.7136 33.6329 11.2778 32.8111 10.3193 31.1776C10.0317 30.6869 10.1969 30.2146 10.6823 30.1124C11.0127 30.0429 11.2472 30.1819 11.4084 30.4804C11.8693 31.337 12.5586 31.932 13.4845 32.2345C14.9428 32.7109 16.6967 32.1527 17.5309 30.8668C17.8368 30.3966 18.0265 29.9039 18.1692 29.3764C18.2488 29.082 18.4833 28.943 18.7545 28.9328C19.0299 28.9246 19.2705 29.0657 19.3643 29.3457C19.4113 29.4848 19.4214 29.6565 19.3868 29.7955C18.8688 31.842 17.4085 33.3426 15.2201 33.6697C15.0162 33.7004 14.8061 33.6738 14.5981 33.6738L14.5961 33.6718Z" fill="#071949"/>
<path d="M21.9104 21.6403C22.8771 21.6975 23.801 22.1882 24.4149 23.2084C24.6209 23.5498 24.5393 23.9566 24.2415 24.1345C23.9152 24.3328 23.5277 24.2388 23.3197 23.8728C22.6936 22.7709 21.166 22.6482 20.3726 23.4925C20.0341 23.8544 19.6527 23.8462 19.3713 23.5375C19.1143 23.2554 19.1612 22.8833 19.4957 22.5542C20.0994 21.9572 20.8703 21.6403 21.9104 21.6403Z" fill="#071949"/>
<path d="M5.48709 22.8424C5.45038 21.3643 6.74748 20.0804 8.2363 20.156C8.58097 20.1724 8.85222 20.4116 8.87873 20.7325C8.90728 21.0637 8.66255 21.3745 8.30768 21.4113C7.86103 21.4563 7.44906 21.5544 7.13702 21.9142C6.76176 22.3436 6.68018 22.8322 6.86781 23.3535C7.06768 23.9116 7.50413 24.2183 8.07926 24.2674C8.64623 24.3164 9.09695 24.0629 9.3988 23.5743C9.4661 23.4639 9.50689 23.3372 9.55991 23.2165C9.70472 22.8915 10.0229 22.7238 10.3308 22.8097C10.647 22.8976 10.8529 23.2288 10.7714 23.5866C10.6245 24.2367 10.2329 24.7376 9.6884 25.0995C8.05274 26.185 5.89906 25.2691 5.5136 23.3331C5.48097 23.1736 5.49525 23.006 5.48709 22.8404V22.8424Z" fill="#071949"/>
</svg>
