<svg width="45" height="45" viewBox="0 0 45 45" fill="none" xmlns="http://www.w3.org/2000/svg">
<rect width="45" height="45" rx="22.5" fill="#F3F3F3"/>
<path d="M28.8002 29.7C28.8002 28.5835 28.8002 28.0253 28.6646 27.5711C28.3592 26.5484 27.5713 25.748 26.5646 25.4378C26.1175 25.3 25.568 25.3 24.4689 25.3H20.5314C19.4324 25.3 18.8829 25.3 18.4358 25.4378C17.4291 25.748 16.6412 26.5484 16.3358 27.5711C16.2002 28.0253 16.2002 28.5835 16.2002 29.7M26.0439 18.9C26.0439 20.8882 24.4574 22.5 22.5002 22.5C20.543 22.5 18.9564 20.8882 18.9564 18.9C18.9564 16.9118 20.543 15.3 22.5002 15.3C24.4574 15.3 26.0439 16.9118 26.0439 18.9Z" stroke="#757575" stroke-width="2" stroke-linecap="round" stroke-linejoin="round"/>
</svg>
